<svg xmlns="http://www.w3.org/2000/svg" xmlns:xlink="http://www.w3.org/1999/xlink" width="20" height="20" viewBox="0 0 20 20"><defs><path id="9c1qa" d="M323 4377h-20l3-9.002h1.238c.379.677.793 1.35 1.221 2h-1.017l-1.667 5.001h14.45l-1.667-5h-1.014a33.11 33.11 0 0 0 1.224-2H320zm-10.785-4.377c-.53-.67-5.21-6.601-5.21-9.622 0-3.31 2.69-6 6-6 3.3 0 6 2.69 6 6 0 3.02-4.69 8.952-5.22 9.622l-.78.97zm-.22-9.622c0 .55.45 1 1 1 .56 0 1-.45 1-1 0-.56-.44-1-1-1-.55 0-1 .44-1 1z"/></defs><g><g transform="translate(-303 -4357)"><use fill="#fff" xlink:href="#9c1qa"/></g></g></svg>