<svg xmlns="http://www.w3.org/2000/svg" xmlns:xlink="http://www.w3.org/1999/xlink" width="40" height="28" viewBox="0 0 40 28"><defs><path id="8z97a" d="M1334 3936v10h-20.001v-10zm-24.001 14H1334v10h-6.37c-.828 2.323-3.027 4-5.631 4s-4.803-1.677-5.631-4h-6.737c-.829 2.323-3.028 4-5.632 4-2.604 0-4.803-1.677-5.631-4H1294v-8c0-3.309 2.691-6 6-6 1.103 0 2-.897 2-2v-2c0-3.309 2.691-6 6-6h1.999zm-4 8c0-1.102-.897-2-2-2-1.102 0-1.999.898-1.999 2v.005a2.002 2.002 0 0 0 1.999 1.995c1.103 0 2-.897 2-2zm14.001.005a2.002 2.002 0 0 0 1.999 1.995c1.103 0 2-.897 2-2 0-1.102-.897-2-2-2-1.102 0-1.999.898-1.999 2z"/></defs><g><g transform="translate(-1294 -3936)"><use fill="#ff7373" xlink:href="#8z97a"/></g></g></svg>