<svg xmlns="http://www.w3.org/2000/svg" xmlns:xlink="http://www.w3.org/1999/xlink" width="40" height="40" viewBox="0 0 40 40"><defs><path id="4bapa" d="M1106 3950h18v20h-18zm22 0h18v20h-18zm18-12v8h-40v-8h4.369a5.934 5.934 0 0 1-.369-2c0-3.308 2.691-6 6-6h4c3.309 0 6 2.692 6 6 0-3.308 2.691-6 6-6h4c3.309 0 6 2.692 6 6 0 .705-.145 1.371-.369 2zm-24-2c0-1.102-.897-2-2-2h-4c-1.104 0-2 .898-2 2 0 1.103.896 2 2 2h6zm16 0c0-1.102-.897-2-2-2h-4c-1.104 0-2 .898-2 2v2h6c1.103 0 2-.897 2-2z"/></defs><g><g transform="translate(-1106 -3930)"><use fill="#ff7373" xlink:href="#4bapa"/></g></g></svg>