<svg xmlns="http://www.w3.org/2000/svg" viewBox="0 0 183 25" width="183" height="25">
	<style>
		tspan { white-space:pre }
		.shp0 { fill: #ffffff } 
		.shp1 { fill: #ff7373 } 
	</style>
	<g id="Nav Bar">
		<g id="Logo">
			<path id="Shape 4" class="shp0" d="M2,8c-1.1,0 -2,0.9 -2,2v6c0,1.1 0.9,2 2,2h10v2h-12v4h14c1.1,0 2,-0.9 2,-2v-6c0,-1.1 -0.9,-2 -2,-2h-10v-2h12v-4h-14zM92,10c0,-1.1 -0.9,-2 -2,-2h-18v2c0,1.1 0.9,2 2,2h18zM84,12h-4v12h4zM22,8h-4v16h4zM34,10c0,-1.1 -0.9,-2 -2,-2h-14v4h16zM34,16v-2h-16v4h14c1.1,0 2,-0.9 2,-2zM30,14h4v-2h-4zM40,8h-2c-1.1,0 -2,0.9 -2,2v12c0,1.1 0.9,2 2,2h2zM52,10c0,-1.1 -0.9,-2 -2,-2h-12c-1.1,0 -2,0.9 -2,2v2h16zM52,22v-2h-16v2c0,1.1 0.9,2 2,2h12c1.1,0 2,-0.9 2,-2zM48,20h4v-8h-4zM58,8h-4v16h4zM66,18h-5l4,6h5zM70,10c0,-1.1 -0.9,-2 -2,-2h-14v4h16zM70,16v-2h-16v4h14c1.1,0 2,-0.9 2,-2zM66,14h4v-2h-4zM96,8c-1.1,0 -2,0.9 -2,2v6c0,1.1 0.9,2 2,2h10v2h-12v4h14c1.1,0 2,-0.9 2,-2v-6c0,-1.1 -0.9,-2 -2,-2h-10v-2h12v-4h-14z" />
			<path id="Shape 3" class="shp1" d="M16,2h-16v2c0,1.1 0.9,2 2,2h12c1.1,0 2,-0.9 2,-2zM3,0h-3v2h4zM10,0h-4l-1,2h6zM16,0h-3l-1,2h4zM116,8h-4v16h4zM128,8h-4v16h4zM128,16v-2h-16v4h14c1.1,0 2,-0.9 2,-2zM134,8h-2c-1.1,0 -2,0.9 -2,2v12c0,1.1 0.9,2 2,2h2zM146,10c0,-1.1 -0.9,-2 -2,-2h-12c-1.1,0 -2,0.9 -2,2v2h16zM146,22v-2h-16v2c0,1.1 0.9,2 2,2h12c1.1,0 2,-0.9 2,-2zM142,20h4v-8h-4zM170,8h-4v16h4zM182,12c0,-2.21 -1.79,-4 -4,-4h-12v4h16zM182,20v0h-16v4h12c2.21,0 4,-1.79 4,-4zM178,20h4v-8h-4zM152,8h-4v14c0,1.1 0.9,2 2,2h2zM164,22v-2h-16v2c0,1.1 0.9,2 2,2h12c1.1,0 2,-0.9 2,-2z" />
		</g>
	</g>
</svg>