<svg xmlns="http://www.w3.org/2000/svg" xmlns:xlink="http://www.w3.org/1999/xlink" width="40" height="40" viewBox="0 0 40 40"><defs><path id="1w81a" d="M566.98 3938.015H541.5l5.94-7.276c.38-.44.92-.72 1.5-.72.6-.02 1.16.22 1.54.66l4.62 5.117 3.48-3.238c.78-.74 2-.72 2.76.02zm8.02 11.995h-6c-3.314 0-6 2.685-6 5.997a5.999 5.999 0 0 0 6 5.998h6V3970h-40v-27.988h40zm-6.001 3.993h6V3958h-6a2 2 0 1 1 0-3.998z"/></defs><g><g transform="translate(-535 -3930)"><use fill="#ff7373" xlink:href="#1w81a"/></g></g></svg>