<svg xmlns="http://www.w3.org/2000/svg" xmlns:xlink="http://www.w3.org/1999/xlink" width="40" height="40" viewBox="0 0 40 40"><defs><path id="8q4ka" d="M955 3950c0 11.028-8.972 20-20 20s-20-8.972-20-20 8.972-20 20-20 20 8.972 20 20zm-22-4c0-1.102.898-2 2-2 1.103 0 2 .898 2 2h4c0-2.604-1.677-4.803-4-5.631V3938h-4v2.369c-2.323.828-4 3.027-4 5.631 0 3.308 2.691 6 6 6 1.103 0 2 .898 2 2 0 1.103-.897 2-2 2-1.102 0-2-.897-2-2h-4c0 2.604 1.677 4.803 4 5.631V3962h4v-2.368c2.323-.829 4-3.028 4-5.632 0-3.309-2.691-6-6-6-1.102 0-2-.897-2-2z"/></defs><g><g transform="translate(-915 -3930)"><use fill="#ff7373" xlink:href="#8q4ka"/></g></g></svg>