<svg xmlns="http://www.w3.org/2000/svg" xmlns:xlink="http://www.w3.org/1999/xlink" width="40" height="40" viewBox="0 0 40 40"><defs><path id="9oyaa" d="M750.843 3969.892c-4.555 0-10.59-3.086-16.075-8.608-7.915-7.968-10.79-17.094-6.686-21.226l3.91-3.937a3.908 3.908 0 0 1 5.553 0l4.166 4.194a3.973 3.973 0 0 1 0 5.592l-1.792 1.804c-.004.604.68 2.668 3.18 5.186 2.494 2.51 4.539 3.202 5.146 3.202h.004l1.792-1.804a3.909 3.909 0 0 1 5.554 0l4.165 4.194a3.973 3.973 0 0 1 0 5.591l-3.91 3.937c-1.26 1.268-2.988 1.875-5.007 1.875zm-7.586-33.612l-2.798-2.816a15.665 15.665 0 0 1 11.747-2.99c6.653.976 12.052 6.325 13.13 13.007.715 4.427-.415 8.723-2.925 12.085l-2.793-2.811c1.65-2.452 2.348-5.509 1.842-8.64-.807-4.998-4.844-8.998-9.82-9.728-3.034-.447-5.994.27-8.383 1.893zm12.445 11.84h-7.854v-9.886h3.927v5.931h3.927z"/></defs><g><g transform="translate(-726 -3930)"><use fill="#ff7373" xlink:href="#9oyaa"/></g></g></svg>