<svg xmlns="http://www.w3.org/2000/svg" xmlns:xlink="http://www.w3.org/1999/xlink" width="80" height="96" viewBox="0 0 80 96"><defs><path id="8ebba" d="M367 842v8h-24v4h20a4 4 0 0 1 4 4v12a4 4 0 0 1-4 4h-28v-8h24v-4h-20a4 4 0 0 1-4-4v-12a4 4 0 0 1 4-4zm0-8a4 4 0 0 1-4 4h-24a4 4 0 0 1-4-4v-8h6l2 4h2l2-4h8l2 4h2l2-4h6z"/><mask id="8ebbc" width="2" height="2" x="-1" y="-1"><path fill="#fff" d="M335 826h32v48h-32z"/><use xlink:href="#8ebba"/></mask><filter id="8ebbb" width="112" height="128" x="295" y="786" filterUnits="userSpaceOnUse"><feOffset in="SourceGraphic" result="FeOffset1023Out"/><feGaussianBlur in="FeOffset1023Out" result="FeGaussianBlur1024Out" stdDeviation="12 12"/></filter></defs><g><g transform="translate(-311 -802)"><g filter="url(#8ebbb)"><use fill="none" stroke-opacity=".2" stroke-width="0" mask="url(&quot;#8ebbc&quot;)" xlink:href="#8ebba"/><use fill-opacity=".2" xlink:href="#8ebba"/></g><use fill="#fff" xlink:href="#8ebba"/></g></g></svg>
