<svg xmlns="http://www.w3.org/2000/svg" xmlns:xlink="http://www.w3.org/1999/xlink" width="26" height="21" viewBox="0 0 26 21"><defs><path id="p5koa" d="M1244.294 4545.598c-.964.421-2 .706-3.088.834a5.315 5.315 0 0 0 2.364-2.928 10.84 10.84 0 0 1-3.415 1.283 5.403 5.403 0 0 0-3.924-1.671c-2.968 0-5.375 2.37-5.375 5.293 0 .416.046.82.139 1.206a15.34 15.34 0 0 1-11.082-5.532 5.224 5.224 0 0 0-.728 2.664c0 1.835.95 3.456 2.392 4.406a5.443 5.443 0 0 1-2.436-.66v.064c0 2.566 1.853 4.706 4.314 5.191a5.33 5.33 0 0 1-1.417.187 5.41 5.41 0 0 1-1.011-.094c.683 2.102 2.668 3.634 5.021 3.674a10.89 10.89 0 0 1-6.676 2.267c-.435 0-.863-.023-1.283-.073a15.404 15.404 0 0 0 8.24 2.378c9.891 0 15.297-8.066 15.297-15.063 0-.23-.004-.459-.014-.685a10.804 10.804 0 0 0 2.682-2.74"/></defs><g><g transform="translate(-1218 -4543)"><use fill="#fff" xlink:href="#p5koa"/></g></g></svg>